<svg width="54" height="62" viewBox="0 0 54 62" fill="none" xmlns="http://www.w3.org/2000/svg">
<path d="M1.98223 24.025C1.63194 24.0281 1.28705 23.939 0.982583 23.7666C0.759262 23.6417 0.563219 23.4738 0.405923 23.2726C0.248628 23.0714 0.133239 22.841 0.0665083 22.595C-0.000222139 22.3489 -0.0169542 22.092 0.0172912 21.8394C0.0515366 21.5868 0.136072 21.3436 0.265951 21.1239C2.76897 16.9673 10.3845 7.26561 27.002 7.26561C34.2034 7.26561 40.5194 9.14756 45.7656 12.8572C50.0836 15.9017 52.5035 19.3478 53.6564 21.0076C53.8026 21.2168 53.9052 21.453 53.9583 21.7023C54.0114 21.9516 54.0138 22.2089 53.9654 22.4592C53.917 22.7094 53.8188 22.9475 53.6766 23.1594C53.5343 23.3713 53.3509 23.5527 53.1371 23.693C52.7001 23.9804 52.1678 24.0872 51.6531 23.9907C51.1383 23.8943 50.6815 23.6022 50.3796 23.1763C48.2933 20.1913 41.9319 11.1083 27.002 11.1083C12.4292 11.1083 5.84062 19.4667 3.69462 23.051C3.52219 23.3504 3.27256 23.5984 2.97153 23.7697C2.67049 23.9409 2.32896 24.029 1.98223 24.025Z" fill="#9CA3AF"/>
<path d="M35.3744 61.9999C35.2087 62.0018 35.0434 61.9832 34.8824 61.9443C22.8282 58.9735 18.3272 46.9843 18.1441 46.4857L18.1155 46.3759C18.0169 46.0297 15.5982 37.8083 19.3112 32.993C21.0132 30.7971 23.6019 29.6708 27.0202 29.6708C30.1983 29.6708 32.491 30.6538 34.0671 32.6881C35.3654 34.3492 35.8847 36.3978 36.3871 38.3714C37.4425 42.4815 38.2046 44.6399 42.5914 44.8621C44.518 44.9589 45.7838 43.8378 46.5017 42.8832C48.4426 40.2805 48.7801 36.0374 47.317 32.2916C45.4371 27.4569 38.7655 18.3416 27.002 18.3416C21.9804 18.3416 17.3665 19.9471 13.6665 22.9645C10.6039 25.4638 8.17747 28.9927 7.00904 32.6197C4.84227 39.3725 7.68413 49.9874 7.7114 50.0843C7.77775 50.3313 7.79372 50.5891 7.75835 50.8424C7.72299 51.0956 7.63701 51.3393 7.50549 51.559C7.37396 51.7787 7.19956 51.97 6.99255 52.1216C6.78555 52.2731 6.55014 52.3819 6.3002 52.4415C5.79527 52.5751 5.25782 52.5066 4.80305 52.2507C4.34827 51.9948 4.01236 51.5718 3.86729 51.0724C3.73746 50.588 0.702162 39.2666 3.20518 31.4623C5.9315 23.0058 14.3454 14.4808 27.0059 14.4808C32.8571 14.4808 38.3851 16.4597 42.999 20.1964C46.5718 23.1027 49.4903 27.0061 51.017 30.9082C52.9579 35.8902 52.4373 41.4818 49.6941 45.1346C47.8662 47.5707 45.2632 48.8443 42.3798 48.706C34.8681 48.3315 33.5179 43.1144 32.5339 39.3092C31.5212 35.4058 30.8734 33.5238 27.0059 33.5238C24.882 33.5238 23.3903 34.1051 22.4621 35.3089C21.1963 36.9558 21.0976 39.5301 21.2378 41.3978C21.3299 42.6991 21.5517 43.988 21.8999 45.2457C22.2089 46.0207 26.2322 55.8373 35.8678 58.2127C36.1168 58.2714 36.3517 58.3788 36.5587 58.5285C36.7656 58.6783 36.9407 58.8675 37.0735 59.0851C37.2064 59.3028 37.2945 59.5445 37.3326 59.7963C37.3708 60.0481 37.3583 60.305 37.2958 60.5519C37.1783 60.9688 36.9268 61.336 36.5799 61.5974C36.233 61.8588 35.8096 62.0002 35.3744 61.9999Z" fill="#9CA3AF"/>
<path d="M19.9019 61.1138C19.6317 61.1144 19.3642 61.0608 19.1152 60.9563C18.8663 60.8517 18.6411 60.6984 18.453 60.5054C13.6287 55.4679 10.8998 49.835 9.87292 42.7915V42.7541C9.2965 38.0912 10.1404 31.4895 14.2753 26.9506C17.3275 23.6013 21.6182 21.8989 27.0059 21.8989C33.3777 21.8989 38.385 24.8465 41.5073 30.4097C43.7727 34.4513 44.2219 38.4787 44.2336 38.644C44.2574 38.8989 44.2304 39.156 44.1541 39.4005C44.0779 39.645 43.9539 39.8722 43.7893 40.0689C43.6246 40.2657 43.4226 40.4282 43.1948 40.5472C42.967 40.6662 42.7178 40.7393 42.4615 40.7623C41.9444 40.8182 41.426 40.6694 41.0182 40.3483C40.6104 40.0271 40.3459 39.5593 40.2818 39.0457C39.9398 36.6292 39.1538 34.2959 37.9631 32.1624C35.5432 27.9142 31.8613 25.7545 26.9916 25.7545C22.7853 25.7545 19.4942 27.0139 17.2301 29.5003C13.9663 33.0847 13.3353 38.6066 13.7832 42.2594C14.6829 48.4878 17.0886 53.4426 21.3364 57.8704C21.5137 58.0539 21.6521 58.271 21.7434 58.5088C21.8347 58.7466 21.877 59.0002 21.8678 59.2546C21.8586 59.509 21.7981 59.7589 21.6898 59.9895C21.5816 60.2202 21.4279 60.4268 21.2378 60.5971C20.8717 60.9273 20.396 61.1113 19.9019 61.1138Z" fill="#9CA3AF"/>
<path d="M42.1266 55.5648C37.9073 55.5648 34.3203 54.4023 31.4499 52.0915C25.683 47.4687 25.0365 39.9395 25.008 39.6218C24.9673 39.1002 25.1366 38.584 25.4786 38.1866C25.8205 37.7892 26.3071 37.5432 26.8313 37.5028C27.3556 37.4624 27.8745 37.6308 28.2739 37.971C28.6733 38.3113 28.9205 38.7954 28.9611 39.317C28.9754 39.428 29.5518 45.5867 33.997 49.1336C36.6273 51.2235 40.1429 52.0528 44.4752 51.5684C44.9929 51.5059 45.5145 51.6499 45.9259 51.9689C46.3373 52.2879 46.605 52.756 46.6705 53.2708C46.6988 53.5251 46.676 53.7825 46.6033 54.028C46.5306 54.2734 46.4096 54.502 46.2471 54.7004C46.0847 54.8987 45.8842 55.063 45.6573 55.1834C45.4304 55.3039 45.1817 55.3782 44.9257 55.4021C43.9966 55.5099 43.062 55.5642 42.1266 55.5648Z" fill="#9CA3AF"/>
<path d="M45.4605 4.23537C43.8143 3.16974 37.9774 0 27.002 0C15.4814 0 9.63021 3.5017 8.33586 4.39166C8.25037 4.44386 8.17035 4.50444 8.09698 4.57249C8.08924 4.57994 8.07915 4.5845 8.06842 4.58541C7.86173 4.76496 7.69588 4.98628 7.58193 5.23462C7.46799 5.48296 7.40856 5.75262 7.40761 6.02561C7.41116 6.28152 7.46543 6.53421 7.56731 6.7692C7.66919 7.0042 7.81668 7.21689 8.00132 7.39507C8.18597 7.57326 8.40413 7.71344 8.64333 7.80759C8.88252 7.90174 9.13803 7.94801 9.39523 7.94373C9.80747 7.94346 10.2098 7.81771 10.5481 7.58336C10.6039 7.54203 15.6398 3.86078 27.0059 3.86078C38.3721 3.86078 43.4353 7.52911 43.4898 7.55623C43.8354 7.81125 44.2552 7.94728 44.6855 7.94373C44.9429 7.94766 45.1985 7.90097 45.4378 7.80635C45.677 7.71172 45.8951 7.57102 46.0795 7.39232C46.2639 7.21362 46.4111 7.00044 46.5125 6.76502C46.6139 6.5296 46.6676 6.27657 46.6705 6.02045C46.6706 5.63681 46.5555 5.26189 46.3399 4.94382C46.1243 4.62574 45.8181 4.37904 45.4605 4.23537Z" fill="#9CA3AF"/>
</svg>
