<svg width="59" height="49" viewBox="0 0 59 49" fill="none" xmlns="http://www.w3.org/2000/svg">
<path d="M22.8901 3.18497C18.4495 1.07218 12.2427 0.0372184 3.93301 0.000474208C3.14932 -0.0101362 2.38101 0.217594 1.73053 0.653296C1.19661 1.01293 0.75955 1.49781 0.457795 2.06527C0.15604 2.63273 -0.0011656 3.26539 6.50649e-06 3.9076V38.9493C6.50649e-06 41.3181 1.6912 43.1051 3.93301 43.1051C12.668 43.1051 21.43 43.9183 26.6781 48.8616C26.7499 48.9296 26.8401 48.975 26.9376 48.9922C27.0351 49.0095 27.1355 48.9978 27.2263 48.9587C27.3172 48.9195 27.3945 48.8546 27.4487 48.7721C27.5029 48.6895 27.5315 48.5929 27.531 48.4942V7.20478C27.5313 6.92621 27.4715 6.65083 27.3557 6.39727C27.2399 6.14371 27.0709 5.91787 26.86 5.73501C25.6578 4.71087 24.3225 3.85312 22.8901 3.18497Z" fill="#9CA3AF"/>
<path d="M57.2646 0.649595C56.6138 0.214978 55.8454 -0.0114809 55.0621 0.000448178C46.7524 0.0371924 40.5456 1.06725 36.105 3.18494C34.6727 3.85188 33.337 4.70795 32.1339 5.73009C31.9235 5.91326 31.7548 6.13919 31.6393 6.3927C31.5237 6.64621 31.464 6.92143 31.464 7.19986V48.4917C31.464 48.5865 31.492 48.6792 31.5446 48.7582C31.5972 48.8372 31.6721 48.899 31.7598 48.9357C31.8475 48.9725 31.9441 48.9826 32.0375 48.9649C32.131 48.9471 32.2171 48.9022 32.2851 48.8359C35.4401 45.7126 40.977 43.1014 55.067 43.1026C56.1101 43.1026 57.1105 42.6897 57.848 41.9546C58.5856 41.2196 59 40.2227 59 39.1832V3.9088C59.0014 3.26532 58.8439 2.63139 58.5412 2.06297C58.2385 1.49455 57.8001 1.00914 57.2646 0.649595Z" fill="#9CA3AF"/>
</svg>
