<svg width="64" height="64" viewBox="0 0 64 64" fill="none" xmlns="http://www.w3.org/2000/svg">
<path d="M62.9125 39.1042L57.2372 35.9769C57.8101 33.0275 57.8101 30.0018 57.2372 27.0525L62.9125 23.9251C63.5653 23.5692 63.8584 22.8318 63.6452 22.1453C62.1664 17.6196 59.6485 13.526 56.358 10.119C55.8517 9.59779 55.0257 9.47067 54.3863 9.82662L48.711 12.954C46.3263 10.9962 43.582 9.48338 40.6111 8.49178V2.2498C40.6111 1.53788 40.0916 0.914952 39.3588 0.762399C34.4696 -0.280051 29.4604 -0.2292 24.811 0.762399C24.0783 0.914952 23.5587 1.53788 23.5587 2.2498V8.50449C20.6012 9.5088 17.8568 11.0216 15.4588 12.9667L9.79688 9.83934C9.14409 9.48338 8.33144 9.59779 7.8252 10.1317C4.53461 13.526 2.01672 17.6196 0.537955 22.158C0.311477 22.8445 0.617888 23.5819 1.27068 23.9378L6.94593 27.0652C6.37308 30.0145 6.37308 33.0402 6.94593 35.9896L1.27068 39.1169C0.617888 39.4729 0.324799 40.2102 0.537955 40.8967C2.01672 45.4225 4.53461 49.516 7.8252 52.923C8.33144 53.4442 9.15742 53.5714 9.79688 53.2154L15.4721 50.0881C17.8568 52.0458 20.6012 53.5587 23.572 54.5503V60.8049C23.572 61.5169 24.0916 62.1398 24.8243 62.2923C29.7136 63.3348 34.7227 63.2839 39.3722 62.2923C40.1049 62.1398 40.6244 61.5169 40.6244 60.8049V54.5503C43.582 53.5459 46.3263 52.0331 48.7243 50.0881L54.3996 53.2154C55.0524 53.5714 55.865 53.457 56.3713 52.923C59.6619 49.5287 62.1798 45.4352 63.6585 40.8967C63.8584 40.1975 63.5653 39.4602 62.9125 39.1042ZM32.0849 41.6849C26.2098 41.6849 21.4272 37.121 21.4272 31.5147C21.4272 25.9083 26.2098 21.3444 32.0849 21.3444C37.96 21.3444 42.7427 25.9083 42.7427 31.5147C42.7427 37.121 37.96 41.6849 32.0849 41.6849Z" fill="#9CA3AF"/>
</svg>
