<svg width="48" height="38" viewBox="0 0 48 38" fill="none" xmlns="http://www.w3.org/2000/svg">
<path d="M4.14434 3.80991L13.6384 11.8223L22.0971 1.83314C22.3339 1.55389 22.6334 1.32947 22.9732 1.17663C23.313 1.02378 23.6844 0.946426 24.0597 0.950337C24.4351 0.954247 24.8046 1.03932 25.1409 1.19921C25.4772 1.3591 25.7715 1.5897 26.002 1.87383L34.0738 11.8199L43.8749 3.69264C44.2597 3.37414 44.7369 3.17598 45.2424 3.1247C45.7479 3.07342 46.2577 3.17146 46.7036 3.4057C47.1494 3.63994 47.51 3.9992 47.7371 4.4354C47.9642 4.8716 48.047 5.36394 47.9744 5.8465L44.2317 30.6087H3.82746L0.0273197 5.95898C-0.048166 5.47373 0.0336692 4.97795 0.261741 4.5388C0.489813 4.09964 0.853101 3.73833 1.3024 3.50379C1.7517 3.26926 2.2653 3.17284 2.77363 3.2276C3.28197 3.28235 3.76047 3.48563 4.14434 3.80991ZM4.02208 33.0019H43.9447V35.3951C43.9447 36.0298 43.6818 36.6385 43.2139 37.0873C42.746 37.5361 42.1113 37.7882 41.4496 37.7882H6.51724C5.85548 37.7882 5.22083 37.5361 4.75289 37.0873C4.28496 36.6385 4.02208 36.0298 4.02208 35.3951V33.0019Z" fill="#ED066B"/>
</svg>
