<svg width="42" height="47" viewBox="0 0 42 47" fill="none" xmlns="http://www.w3.org/2000/svg">
<path fill-rule="evenodd" clip-rule="evenodd" d="M26.0292 0.222476C26.8533 0.436659 27.5436 0.986851 27.9249 1.73323C29.3623 4.54686 30.4351 6.25452 31.5143 7.6391C32.6068 9.04058 33.7624 10.1879 35.5203 11.9084C39.5826 15.8844 41.6146 21.1013 41.6146 26.3087C41.6146 31.516 39.5826 36.7329 35.5203 40.7088C27.3945 48.6619 14.2201 48.6619 6.09432 40.7088C2.03203 36.7329 6.99444e-06 31.516 0 26.3087C-8.79088e-06 21.1013 2.03201 15.8844 6.09432 11.9084C6.94444 11.0764 8.22295 10.8275 9.33369 11.2778C10.4444 11.7281 11.1686 12.7889 11.1686 13.9656C11.1686 17.2234 11.3765 19.7058 12.3501 21.6858C12.8854 22.7746 13.7205 23.839 15.1597 24.7889C15.5035 21.7028 16.1331 17.9429 16.984 14.374C17.6538 11.5642 18.487 8.75897 19.4786 6.4197C19.9746 5.24966 20.5355 4.13557 21.1725 3.17366C21.7925 2.23736 22.5892 1.28458 23.6174 0.613628C24.3269 0.150746 25.2052 0.00829408 26.0292 0.222476ZM27.1129 38.2986C23.6304 41.7071 17.9842 41.7071 14.5017 38.2986C12.7605 36.5944 11.8899 34.3608 11.8899 32.1271C11.8899 32.1271 14.5017 33.5817 19.3212 33.5817C19.3212 30.6725 20.8074 21.9446 23.0368 20.49C24.523 23.3993 25.3716 24.2514 27.1129 25.9556C28.8541 27.6598 29.7247 29.8935 29.7247 32.1271C29.7247 34.3608 28.8541 36.5944 27.1129 38.2986Z" fill="#FF8A00"/>
</svg>
