<svg width="47" height="47" viewBox="0 0 47 47" fill="none" xmlns="http://www.w3.org/2000/svg">
<path d="M17.8838 45.2032C17.6377 45.2034 17.3946 45.1502 17.1715 45.0474C16.9484 44.9447 16.7507 44.7948 16.5923 44.6083C16.434 44.4218 16.3188 44.2032 16.2548 43.968C16.1909 43.7327 16.1798 43.4864 16.2223 43.2464V43.2364L18.8027 29.2077H8.81247C8.53517 29.2077 8.26354 29.1299 8.029 28.9834C7.79447 28.837 7.60661 28.6277 7.48715 28.38C7.36769 28.1322 7.32151 27.856 7.35396 27.5834C7.38641 27.3107 7.49616 27.0527 7.67051 26.8393L27.7896 2.21533C28.0186 1.92752 28.3366 1.72189 28.6948 1.6299C29.053 1.5379 29.4318 1.56459 29.7732 1.70588C30.1147 1.84718 30.3999 2.09531 30.5855 2.41232C30.771 2.72934 30.8466 3.09779 30.8006 3.46134C30.8006 3.4886 30.7932 3.51496 30.7886 3.54222L28.199 17.5746H38.1875C38.4648 17.5746 38.7364 17.6524 38.9709 17.7989C39.2055 17.9453 39.3933 18.1546 39.5128 18.4023C39.6322 18.6501 39.6784 18.9263 39.646 19.1989C39.6135 19.4716 39.5038 19.7295 39.3294 19.943L19.2075 44.567C19.0494 44.7647 18.8483 44.9247 18.6191 45.0348C18.3899 45.145 18.1386 45.2025 17.8838 45.2032Z" fill="#E4B611"/>
</svg>
