<svg width="45" height="45" viewBox="0 0 45 45" fill="none" xmlns="http://www.w3.org/2000/svg">
<path d="M7 0C3.13401 0 0 3.13401 0 7V38C0 41.866 3.13401 45 7 45H38C41.866 45 45 41.866 45 38V7C45 3.13401 41.866 0 38 0H7ZM24.1071 34.9554C24.1071 39.3358 21.5196 41.4713 17.774 41.4713C15.2875 41.4713 13.5678 40.525 12.4352 39.1839C11.7471 38.3691 12.1238 37.1856 13.0362 36.6334C14.0418 36.0246 15.192 36.5307 16.1175 37.2555C16.4687 37.5306 16.902 37.6955 17.4917 37.6955C18.6971 37.6955 19.6875 37.1521 19.6875 35.0377V23.1027C19.6875 21.8822 20.6769 20.8929 21.8973 20.8929C23.1178 20.8929 24.1071 21.8822 24.1071 23.1027V34.9554ZM34.0865 41.3709C31.0918 41.3709 28.9052 40.3401 27.4865 38.7653C26.7506 37.9483 27.1286 36.7213 28.0803 36.1705C29.0546 35.6065 30.252 35.9929 31.1305 36.6969C31.8592 37.2809 32.7733 37.6232 34.0011 37.6232C35.7529 37.6232 36.7704 36.8478 36.7704 35.6394C36.7704 34.1899 35.7228 33.6767 33.7892 32.8269L32.7325 32.3729C29.6809 31.0751 27.6579 29.4439 27.6579 25.9996C27.6579 22.8285 30.0737 20.5122 33.8494 20.5122C35.8975 20.5122 37.5062 20.997 38.7714 22.3093C39.4903 23.0549 39.179 24.2333 38.3077 24.7933C37.3619 25.4013 36.1775 24.9294 35.1834 24.4039C34.7955 24.1989 34.3587 24.1071 33.8444 24.1071C32.6059 24.1071 31.8204 24.8926 31.8204 25.9152C31.8204 27.1838 32.6059 27.6971 34.418 28.4826L35.4747 28.9356C39.0696 30.4764 41.0936 32.0494 41.0936 35.5811C41.0946 39.3881 38.1044 41.3709 34.0865 41.3709Z" fill="#FFE605"/>
</svg>
