<svg width="46" height="46" viewBox="0 0 46 46" fill="none" xmlns="http://www.w3.org/2000/svg">
<g clip-path="url(#clip0_2_167)">
<path d="M26.8334 19.167H28.75C30.6667 19.167 30.6667 21.0837 32.614 25.9271C34.5 30.667 34.5 32.5837 36.4167 32.5837H38.3334" stroke="white" stroke-width="2" stroke-linecap="round" stroke-linejoin="round"/>
<path d="M24.9166 32.5837C27.7916 32.5837 30.6666 28.7503 32.5833 25.8753C34.5 23.0003 37.375 19.167 40.25 19.167" stroke="white" stroke-width="2" stroke-linecap="round" stroke-linejoin="round"/>
<path d="M5.75 36.4167C5.75 39.2917 6.70833 40.25 9.58333 40.25C12.4583 40.25 13.4167 32.5833 15.3333 23C17.25 13.4167 18.2083 5.75 21.0833 5.75C23.9583 5.75 24.9167 6.70833 24.9167 9.58333" stroke="white" stroke-width="2" stroke-linecap="round" stroke-linejoin="round"/>
<path d="M9.58337 23H21.0834" stroke="white" stroke-width="2" stroke-linecap="round" stroke-linejoin="round"/>
</g>
<defs>
<clipPath id="clip0_2_167">
<rect width="46" height="46" fill="white"/>
</clipPath>
</defs>
</svg>
