<svg width="40" height="40" viewBox="0 0 40 40" fill="none" xmlns="http://www.w3.org/2000/svg">
<path d="M25.1785 0.391428C23.5187 0.118217 21.0892 -0.00767437 19.4401 0.000361242C17.8944 0.00215049 16.3516 0.13296 14.8276 0.391428C10.7437 1.10571 9.99997 2.59676 9.99997 5.3503V8.57168H19.9999V10.0002H6.75177C3.04107 10.0002 0.0294772 14.435 1.30778e-05 19.9215C1.30778e-05 19.9474 1.30778e-05 19.9733 1.30778e-05 20.0001C-0.00127326 20.9594 0.092337 21.9164 0.279476 22.8572C1.10894 26.9893 3.69285 30 6.75177 30H8.57141V25.1786C8.57141 22.384 10.4321 19.826 13.4821 19.2769L14.3633 19.1671H25.1785C25.6327 19.1689 26.0851 19.1088 26.5231 18.9885C27.5246 18.7211 28.4091 18.1292 29.0382 17.3054C29.6673 16.4816 30.0055 15.4724 29.9999 14.4359V5.3503C29.9999 2.76818 27.7963 0.820887 25.1785 0.391428ZM14.5473 6.56278C14.187 6.56402 13.8345 6.45824 13.5345 6.25887C13.2344 6.05951 13.0004 5.77552 12.8619 5.44294C12.7235 5.11036 12.687 4.74416 12.7569 4.39078C12.8269 4.0374 13.0003 3.71276 13.255 3.45803C13.5097 3.2033 13.8344 3.02996 14.1877 2.95998C14.5411 2.89 14.9073 2.92655 15.2399 3.06497C15.5725 3.2034 15.8565 3.43748 16.0559 3.73753C16.2552 4.03757 16.361 4.39006 16.3598 4.7503C16.3599 4.98835 16.3131 5.22409 16.222 5.44405C16.131 5.664 15.9975 5.86385 15.8292 6.03218C15.6608 6.20051 15.461 6.33401 15.241 6.42505C15.0211 6.5161 14.7853 6.5629 14.5473 6.56278Z" fill="#ED066B"/>
<path d="M39.5784 16.518C38.6231 12.7136 36.149 10.0002 33.2481 10.0002H31.6668V14.2368C31.6668 17.7698 29.3454 20.3278 26.5115 20.7662C26.2252 20.8106 25.936 20.8329 25.6463 20.8331H14.8285C14.3697 20.8327 13.9127 20.8912 13.4687 21.0072C11.4768 21.5305 9.99997 23.1876 9.99997 25.3367V34.4232C9.99997 37.0124 12.6017 38.5302 15.1544 39.2722C18.2089 40.1606 21.5365 40.3213 25.1919 39.2722C27.6195 38.5785 29.9999 37.1758 29.9999 34.4232V31.4285H19.9999V30H33.2481C35.8766 30 38.1543 27.7741 39.2704 24.526C39.7605 23.0677 40.007 21.5386 39.9998 20.0001C40.0024 18.8265 39.8608 17.6571 39.5784 16.518ZM25.4026 33.2142C25.7628 33.213 26.1153 33.3188 26.4154 33.5181C26.7154 33.7175 26.9495 34.0015 27.0879 34.3341C27.2264 34.6667 27.2629 35.0329 27.1929 35.3862C27.1229 35.7396 26.9496 36.0643 26.6949 36.319C26.4401 36.5737 26.1155 36.7471 25.7621 36.817C25.4087 36.887 25.0425 36.8505 24.7099 36.712C24.3774 36.5736 24.0934 36.3395 23.894 36.0395C23.6946 35.7394 23.5889 35.387 23.5901 35.0267C23.59 34.7887 23.6368 34.5529 23.7278 34.333C23.8189 34.113 23.9524 33.9132 24.1207 33.7448C24.289 33.5765 24.4889 33.443 24.7088 33.352C24.9288 33.2609 25.1645 33.2141 25.4026 33.2142Z" fill="#ED066B"/>
</svg>
