<svg width="36" height="47" viewBox="0 0 36 47" fill="none" xmlns="http://www.w3.org/2000/svg">
<path d="M19.9712 18.2887C20.3012 17.3289 21.699 17.3289 22.029 18.2887L23.9638 23.922C24.3897 25.1604 25.1072 26.2855 26.0595 27.2083C27.0118 28.1311 28.1727 28.8261 29.4502 29.2383L35.2576 31.1142C36.2475 31.4341 36.2475 32.7893 35.2576 33.1093L29.4472 34.9851C28.1699 35.398 27.0094 36.0937 26.0576 37.0169C25.1058 37.9402 24.389 39.0658 23.9638 40.3043L22.029 45.9348C21.9579 46.1449 21.8201 46.3279 21.6353 46.4577C21.4506 46.5874 21.2282 46.6573 21.0001 46.6573C20.772 46.6573 20.5497 46.5874 20.3649 46.4577C20.1801 46.3279 20.0424 46.1449 19.9712 45.9348L18.0364 40.3014C17.6109 39.0634 16.8938 37.9384 15.942 37.0157C14.9903 36.0929 13.83 35.3977 12.553 34.9851L6.74264 33.1093C6.52588 33.0403 6.33712 32.9067 6.2033 32.7276C6.06948 32.5484 5.99743 32.3329 5.99743 32.1117C5.99743 31.8905 6.06948 31.675 6.2033 31.4959C6.33712 31.3167 6.52588 31.1831 6.74264 31.1142L12.553 29.2383C13.83 28.8257 14.9903 28.1305 15.942 27.2078C16.8938 26.285 17.6109 25.16 18.0364 23.922L19.9712 18.2887ZM8.38346 3.45935C8.42648 3.33341 8.50934 3.22381 8.62027 3.14613C8.7312 3.06845 8.86456 3.02664 9.0014 3.02664C9.13823 3.02664 9.27159 3.06845 9.38252 3.14613C9.49345 3.22381 9.57631 3.33341 9.61933 3.45935L10.7802 6.83877C11.2991 8.34526 12.517 9.52602 14.0709 10.0292L17.5565 11.1547C17.6864 11.1964 17.7994 11.2767 17.8795 11.3842C17.9597 11.4918 18.0028 11.6211 18.0028 11.7538C18.0028 11.8864 17.9597 12.0157 17.8795 12.1233C17.7994 12.2308 17.6864 12.3112 17.5565 12.3529L14.0709 13.4784C13.3041 13.7251 12.6073 14.142 12.036 14.6959C11.4647 15.2498 11.0347 15.9253 10.7802 16.6688L9.61933 20.0482C9.57631 20.1741 9.49345 20.2837 9.38252 20.3614C9.27159 20.4391 9.13823 20.4809 9.0014 20.4809C8.86456 20.4809 8.7312 20.4391 8.62027 20.3614C8.50934 20.2837 8.42648 20.1741 8.38346 20.0482L7.22259 16.6688C6.9681 15.9253 6.53809 15.2498 5.9668 14.6959C5.39552 14.142 4.69873 13.7251 3.93194 13.4784L0.446313 12.3529C0.316411 12.3112 0.203367 12.2308 0.123246 12.1233C0.0431244 12.0157 0 11.8864 0 11.7538C0 11.6211 0.0431244 11.4918 0.123246 11.3842C0.203367 11.2767 0.316411 11.1964 0.446313 11.1547L3.93194 10.0292C4.69873 9.78242 5.39552 9.36551 5.9668 8.81163C6.53809 8.25775 6.9681 7.5822 7.22259 6.83877L8.38346 3.45935ZM29.5882 0.408565C29.6178 0.325755 29.6733 0.253949 29.7469 0.203129C29.8206 0.152308 29.9087 0.125 29.9991 0.125C30.0895 0.125 30.1777 0.152308 30.2513 0.203129C30.325 0.253949 30.3805 0.325755 30.4101 0.408565L31.184 2.65957C31.529 3.66584 32.3419 4.45398 33.3798 4.78843L35.7015 5.53877C35.7869 5.56748 35.861 5.62128 35.9134 5.69268C35.9658 5.76409 35.994 5.84956 35.994 5.9372C35.994 6.02485 35.9658 6.11032 35.9134 6.18172C35.861 6.25313 35.7869 6.30693 35.7015 6.33564L33.3798 7.08597C32.8687 7.25175 32.4044 7.53033 32.0234 7.89976C31.6423 8.26919 31.355 8.71938 31.184 9.21484L30.4101 11.4658C30.3805 11.5487 30.325 11.6205 30.2513 11.6713C30.1777 11.7221 30.0895 11.7494 29.9991 11.7494C29.9087 11.7494 29.8206 11.7221 29.7469 11.6713C29.6733 11.6205 29.6178 11.5487 29.5882 11.4658L28.8143 9.21484C28.6433 8.71938 28.356 8.26919 27.9749 7.89976C27.5939 7.53033 27.1295 7.25175 26.6185 7.08597L24.2998 6.33564C24.2143 6.30693 24.1403 6.25313 24.0879 6.18172C24.0354 6.11032 24.0073 6.02485 24.0073 5.9372C24.0073 5.84956 24.0354 5.76409 24.0879 5.69268C24.1403 5.62128 24.2143 5.56748 24.2998 5.53877L26.6215 4.78843C27.6594 4.45398 28.4723 3.66584 28.8173 2.65957L29.5882 0.408565Z" fill="#FFE605"/>
</svg>
